<svg xmlns="http://www.w3.org/2000/svg" viewBox="0 0 880 1134" width="100%" role="img" aria-labelledby="cm-title cm-desc" font-family="Inter, -apple-system, Segoe UI, Roboto, sans-serif">
<title id="cm-title">Dr. Sadat platform connection map</title>
<desc id="cm-desc">Five tiers: A competency spine C1 to C6, B navigation surfaces, C assessment and retention loop, D legacy skill overlay for audit only, E incoherencies with target fixes. Every implemented node links to its live demo route. 35 nodes, 79 edges.</desc>
<defs><marker id="ah" viewBox="0 0 10 10" refX="8" refY="5" markerWidth="6" markerHeight="6" orient="auto-start-reverse"><path d="M2 1L8 5L2 9" fill="none" stroke="#2b6cff" stroke-width="1.4" stroke-linecap="round" stroke-linejoin="round"/></marker></defs>
<text x="20" y="26" font-size="15" font-weight="700" fill="#e7eef9">Site connection map — every built node links to the live demo</text>
<text x="20" y="43" font-size="10.5" fill="#64718c">35 nodes · 79 relationships · click any coloured card to open that surface in the demo</text>
<rect x="12" y="46" width="856" height="142" rx="10" fill="#16223a" fill-opacity="0.4" stroke="#26324c" stroke-width="1"/>
<text x="24" y="68" font-size="13" font-weight="700" fill="#e7eef9">Tier A</text>
<text x="24" y="86" font-size="10.5" fill="#93a1bd">Competency spine</text>
<text x="24" y="100" font-size="10.5" fill="#93a1bd">(C1–C6)</text>
<rect x="12" y="202" width="856" height="142" rx="10" fill="#16223a" fill-opacity="0.4" stroke="#26324c" stroke-width="1"/>
<text x="24" y="224" font-size="13" font-weight="700" fill="#e7eef9">Tier B</text>
<text x="24" y="242" font-size="10.5" fill="#93a1bd">Navigation</text>
<text x="24" y="256" font-size="10.5" fill="#93a1bd">surfaces</text>
<rect x="12" y="358" width="856" height="208" rx="10" fill="#16223a" fill-opacity="0.4" stroke="#26324c" stroke-width="1"/>
<text x="24" y="380" font-size="13" font-weight="700" fill="#e7eef9">Tier C</text>
<text x="24" y="398" font-size="10.5" fill="#93a1bd">Assessment &amp;</text>
<text x="24" y="412" font-size="10.5" fill="#93a1bd">retention loop</text>
<rect x="12" y="580" width="856" height="208" rx="10" fill="#16223a" fill-opacity="0.4" stroke="#26324c" stroke-width="1"/>
<text x="24" y="602" font-size="13" font-weight="700" fill="#e7eef9">Tier D</text>
<text x="24" y="620" font-size="10.5" fill="#93a1bd">Legacy skill</text>
<text x="24" y="634" font-size="10.5" fill="#93a1bd">overlay —</text>
<text x="24" y="648" font-size="10.5" fill="#93a1bd">audit-only</text>
<rect x="12" y="802" width="856" height="270" rx="10" fill="#16223a" fill-opacity="0.4" stroke="#26324c" stroke-width="1"/>
<text x="24" y="824" font-size="13" font-weight="700" fill="#e7eef9">Tier E</text>
<text x="24" y="842" font-size="10.5" fill="#93a1bd">Incoherencies +</text>
<text x="24" y="856" font-size="10.5" fill="#93a1bd">target fix</text>
<line x1="320" y1="80" x2="334" y2="80" stroke="#2b6cff" stroke-width="1.5" marker-end="url(#ah)"/>
<path d="M320 80 C 418 80, 418 146, 516 146" fill="none" stroke="#2b6cff" stroke-width="1.3" stroke-opacity="0.7" marker-end="url(#ah)"/>
<line x1="502" y1="80" x2="516" y2="80" stroke="#2b6cff" stroke-width="1.5" marker-end="url(#ah)"/>
<path d="M320 80 C 236 80, 236 146, 152 146" fill="none" stroke="#2b6cff" stroke-width="1.3" stroke-opacity="0.7" marker-end="url(#ah)"/>
<path d="M684 80 C 418 80, 418 146, 152 146" fill="none" stroke="#2b6cff" stroke-width="1.3" stroke-opacity="0.7" marker-end="url(#ah)"/>
<path d="M684 80 C 509 80, 509 146, 334 146" fill="none" stroke="#2b6cff" stroke-width="1.3" stroke-opacity="0.7" marker-end="url(#ah)"/>
<a href="https://hrezaii95.github.io/dialysis-education-platform/course/c1" target="_blank" rel="noopener noreferrer"><title>Open live demo: Understand the therapy</title><rect x="152" y="54" width="168" height="52" rx="7" fill="#16223a" stroke="#22c55e" stroke-width="1.5"/><rect x="152" y="54" width="4" height="52" rx="2" fill="#22c55e"/><text x="164" y="71" font-size="10.5" fill="#e7eef9">Understand the therapy</text><text x="312" y="99" text-anchor="end" font-size="8" font-weight="700" fill="#22c55e" letter-spacing="0.4">REAL</text></a>
<a href="https://hrezaii95.github.io/dialysis-education-platform/flipbook?page=m4-p1" target="_blank" rel="noopener noreferrer"><title>Open live demo: Vascular access &amp; cannulation</title><rect x="334" y="54" width="168" height="52" rx="7" fill="#16223a" stroke="#f59e0b" stroke-width="1.5"/><rect x="334" y="54" width="4" height="52" rx="2" fill="#f59e0b"/><text x="346" y="71" font-size="10.5" fill="#e7eef9">Vascular access &amp;</text><text x="346" y="83.5" font-size="10.5" fill="#e7eef9">cannulation</text><text x="494" y="99" text-anchor="end" font-size="8" font-weight="700" fill="#f59e0b" letter-spacing="0.4">STUB</text></a>
<a href="https://hrezaii95.github.io/dialysis-education-platform/devices" target="_blank" rel="noopener noreferrer"><title>Open live demo: Operate the 5008 for online-HDF</title><rect x="516" y="54" width="168" height="52" rx="7" fill="#16223a" stroke="#22c55e" stroke-width="1.5"/><rect x="516" y="54" width="4" height="52" rx="2" fill="#22c55e"/><text x="528" y="71" font-size="10.5" fill="#e7eef9">Operate the 5008 for</text><text x="528" y="83.5" font-size="10.5" fill="#e7eef9">online-HDF</text><text x="676" y="99" text-anchor="end" font-size="8" font-weight="700" fill="#22c55e" letter-spacing="0.4">REAL</text></a>
<a href="https://hrezaii95.github.io/dialysis-education-platform/simulator?tab=circuit" target="_blank" rel="noopener noreferrer"><title>Open live demo: Deliver HDF Rx + water safety</title><rect x="152" y="120" width="168" height="52" rx="7" fill="#16223a" stroke="#94a3b8" stroke-width="1.5"/><rect x="152" y="120" width="4" height="52" rx="2" fill="#94a3b8"/><text x="164" y="137" font-size="10.5" fill="#e7eef9">Deliver HDF Rx + water</text><text x="164" y="149.5" font-size="10.5" fill="#e7eef9">safety</text><text x="312" y="165" text-anchor="end" font-size="8" font-weight="700" fill="#94a3b8" letter-spacing="0.4">PLANNED</text></a>
<a href="https://hrezaii95.github.io/dialysis-education-platform/simulator?tab=cases" target="_blank" rel="noopener noreferrer"><title>Open live demo: Monitor adequacy &amp; complications</title><rect x="334" y="120" width="168" height="52" rx="7" fill="#16223a" stroke="#22c55e" stroke-width="1.5"/><rect x="334" y="120" width="4" height="52" rx="2" fill="#22c55e"/><text x="346" y="137" font-size="10.5" fill="#e7eef9">Monitor adequacy &amp;</text><text x="346" y="149.5" font-size="10.5" fill="#e7eef9">complications</text><text x="494" y="165" text-anchor="end" font-size="8" font-weight="700" fill="#22c55e" letter-spacing="0.4">REAL</text></a>
<a href="https://hrezaii95.github.io/dialysis-education-platform/convince" target="_blank" rel="noopener noreferrer"><title>Open live demo: Know the evidence</title><rect x="516" y="120" width="168" height="52" rx="7" fill="#16223a" stroke="#22c55e" stroke-width="1.5"/><rect x="516" y="120" width="4" height="52" rx="2" fill="#22c55e"/><text x="528" y="137" font-size="10.5" fill="#e7eef9">Know the evidence</text><text x="676" y="165" text-anchor="end" font-size="8" font-weight="700" fill="#22c55e" letter-spacing="0.4">REAL</text></a>
<a href="https://hrezaii95.github.io/dialysis-education-platform/" target="_blank" rel="noopener noreferrer"><title>Open live demo: Home / onboarding</title><rect x="152" y="210" width="168" height="52" rx="7" fill="#16223a" stroke="#22c55e" stroke-width="1.5"/><rect x="152" y="210" width="4" height="52" rx="2" fill="#22c55e"/><text x="164" y="227" font-size="10.5" fill="#e7eef9">Home / onboarding</text><text x="312" y="255" text-anchor="end" font-size="8" font-weight="700" fill="#22c55e" letter-spacing="0.4">REAL</text></a>
<a href="https://hrezaii95.github.io/dialysis-education-platform/my-path" target="_blank" rel="noopener noreferrer"><title>Open live demo: My Path (competency spine)</title><rect x="334" y="210" width="168" height="52" rx="7" fill="#16223a" stroke="#22c55e" stroke-width="1.5"/><rect x="334" y="210" width="4" height="52" rx="2" fill="#22c55e"/><text x="346" y="227" font-size="10.5" fill="#e7eef9">My Path</text><text x="494" y="255" text-anchor="end" font-size="8" font-weight="700" fill="#22c55e" letter-spacing="0.4">REAL</text></a>
<a href="https://hrezaii95.github.io/dialysis-education-platform/learn/c1" target="_blank" rel="noopener noreferrer"><title>Open live demo: Learn hub (per-competency detail, /learn/c1…c6)</title><rect x="516" y="210" width="168" height="52" rx="7" fill="#16223a" stroke="#22c55e" stroke-width="1.5"/><rect x="516" y="210" width="4" height="52" rx="2" fill="#22c55e"/><text x="528" y="227" font-size="10.5" fill="#e7eef9">Learn hub</text><text x="676" y="255" text-anchor="end" font-size="8" font-weight="700" fill="#22c55e" letter-spacing="0.4">REAL</text></a>
<a href="https://hrezaii95.github.io/dialysis-education-platform/simulator" target="_blank" rel="noopener noreferrer"><title>Open live demo: Simulator (default / no tab — generic practice CTA)</title><rect x="152" y="276" width="168" height="52" rx="7" fill="#16223a" stroke="#22c55e" stroke-width="1.5"/><rect x="152" y="276" width="4" height="52" rx="2" fill="#22c55e"/><text x="164" y="293" font-size="10.5" fill="#e7eef9">Simulator</text><text x="312" y="321" text-anchor="end" font-size="8" font-weight="700" fill="#22c55e" letter-spacing="0.4">REAL</text></a>
<a href="https://hrezaii95.github.io/dialysis-education-platform/simulator?tab=monitor" target="_blank" rel="noopener noreferrer"><title>Open live demo: 5008 Monitor Mastery tab</title><rect x="334" y="276" width="168" height="52" rx="7" fill="#16223a" stroke="#22c55e" stroke-width="1.5"/><rect x="334" y="276" width="4" height="52" rx="2" fill="#22c55e"/><text x="346" y="293" font-size="10.5" fill="#e7eef9">5008 Monitor Mastery tab</text><text x="494" y="321" text-anchor="end" font-size="8" font-weight="700" fill="#22c55e" letter-spacing="0.4">REAL</text></a>
<a href="https://hrezaii95.github.io/dialysis-education-platform/admin" target="_blank" rel="noopener noreferrer"><title>Open live demo: Supervisor dashboard</title><rect x="516" y="276" width="168" height="52" rx="7" fill="#16223a" stroke="#22c55e" stroke-width="1.5"/><rect x="516" y="276" width="4" height="52" rx="2" fill="#22c55e"/><text x="528" y="293" font-size="10.5" fill="#e7eef9">Supervisor dashboard</text><text x="676" y="321" text-anchor="end" font-size="8" font-weight="700" fill="#22c55e" letter-spacing="0.4">REAL</text></a>
<a href="https://hrezaii95.github.io/dialysis-education-platform/placement" target="_blank" rel="noopener noreferrer"><title>Open live demo: Placement diagnostic (7Q)</title><rect x="152" y="366" width="168" height="52" rx="7" fill="#16223a" stroke="#22c55e" stroke-width="1.5"/><rect x="152" y="366" width="4" height="52" rx="2" fill="#22c55e"/><text x="164" y="383" font-size="10.5" fill="#e7eef9">Placement diagnostic</text><text x="312" y="411" text-anchor="end" font-size="8" font-weight="700" fill="#22c55e" letter-spacing="0.4">REAL</text></a>
<a href="https://hrezaii95.github.io/dialysis-education-platform/assessment" target="_blank" rel="noopener noreferrer"><title>Open live demo: Credential exam (8Q, ≥80% → certificate)</title><rect x="334" y="366" width="168" height="52" rx="7" fill="#16223a" stroke="#22c55e" stroke-width="1.5"/><rect x="334" y="366" width="4" height="52" rx="2" fill="#22c55e"/><text x="346" y="383" font-size="10.5" fill="#e7eef9">Credential exam</text><text x="494" y="411" text-anchor="end" font-size="8" font-weight="700" fill="#22c55e" letter-spacing="0.4">REAL</text></a>
<a href="https://hrezaii95.github.io/dialysis-education-platform/daily-5" target="_blank" rel="noopener noreferrer"><title>Open live demo: Daily-5 spaced retention (12 cards, all 6 competencies)</title><rect x="516" y="366" width="168" height="52" rx="7" fill="#16223a" stroke="#22c55e" stroke-width="1.5"/><rect x="516" y="366" width="4" height="52" rx="2" fill="#22c55e"/><text x="528" y="383" font-size="10.5" fill="#e7eef9">Daily-5 spaced retention</text><text x="676" y="411" text-anchor="end" font-size="8" font-weight="700" fill="#22c55e" letter-spacing="0.4">REAL</text></a>
<a href="https://hrezaii95.github.io/dialysis-education-platform/simulator?tab=cases" target="_blank" rel="noopener noreferrer"><title>Open live demo: Case 1 — IDH (full branching, DP1–DP3)</title><rect x="152" y="432" width="168" height="52" rx="7" fill="#16223a" stroke="#22c55e" stroke-width="1.5"/><rect x="152" y="432" width="4" height="52" rx="2" fill="#22c55e"/><text x="164" y="449" font-size="10.5" fill="#e7eef9">Case 1 — IDH</text><text x="312" y="477" text-anchor="end" font-size="8" font-weight="700" fill="#22c55e" letter-spacing="0.4">REAL</text></a>
<a href="https://hrezaii95.github.io/dialysis-education-platform/simulator?tab=cases" target="_blank" rel="noopener noreferrer"><title>Open live demo: Case 2 — Arrhythmia (stub, DP1 only)</title><rect x="334" y="432" width="168" height="52" rx="7" fill="#16223a" stroke="#f59e0b" stroke-width="1.5"/><rect x="334" y="432" width="4" height="52" rx="2" fill="#f59e0b"/><text x="346" y="449" font-size="10.5" fill="#e7eef9">Case 2 — Arrhythmia</text><text x="494" y="477" text-anchor="end" font-size="8" font-weight="700" fill="#f59e0b" letter-spacing="0.4">STUB</text></a>
<a href="https://hrezaii95.github.io/dialysis-education-platform/simulator?tab=cases" target="_blank" rel="noopener noreferrer"><title>Open live demo: Case 3 — Hyperkalemia (stub, DP1 only)</title><rect x="516" y="432" width="168" height="52" rx="7" fill="#16223a" stroke="#f59e0b" stroke-width="1.5"/><rect x="516" y="432" width="4" height="52" rx="2" fill="#f59e0b"/><text x="528" y="449" font-size="10.5" fill="#e7eef9">Case 3 — Hyperkalemia</text><text x="676" y="477" text-anchor="end" font-size="8" font-weight="700" fill="#f59e0b" letter-spacing="0.4">STUB</text></a>
<a href="https://hrezaii95.github.io/dialysis-education-platform/simulator?tab=cases" target="_blank" rel="noopener noreferrer"><title>Open live demo: Case 4 — Metabolic acidosis (stub, DP1 only)</title><rect x="152" y="498" width="168" height="52" rx="7" fill="#16223a" stroke="#f59e0b" stroke-width="1.5"/><rect x="152" y="498" width="4" height="52" rx="2" fill="#f59e0b"/><text x="164" y="515" font-size="10.5" fill="#e7eef9">Case 4 — Metabolic</text><text x="164" y="527.5" font-size="10.5" fill="#e7eef9">acidosis</text><text x="312" y="543" text-anchor="end" font-size="8" font-weight="700" fill="#f59e0b" letter-spacing="0.4">STUB</text></a>
<a href="https://hrezaii95.github.io/dialysis-education-platform/alarms" target="_blank" rel="noopener noreferrer"><title>Open live demo: Alarm trainer (8 critical alarms, audio + checklist)</title><rect x="334" y="498" width="168" height="52" rx="7" fill="#16223a" stroke="#22c55e" stroke-width="1.5"/><rect x="334" y="498" width="4" height="52" rx="2" fill="#22c55e"/><text x="346" y="515" font-size="10.5" fill="#e7eef9">Alarm trainer</text><text x="494" y="543" text-anchor="end" font-size="8" font-weight="700" fill="#22c55e" letter-spacing="0.4">REAL</text></a>
<a href="https://hrezaii95.github.io/dialysis-education-platform/flipbook?page=m1-p1" target="_blank" rel="noopener noreferrer"><title>Open live demo: HDF Clinical Foundation (legacy skill)</title><rect x="152" y="588" width="168" height="52" rx="7" fill="#16223a" stroke="#5b6a86" stroke-width="1.5"/><rect x="152" y="588" width="4" height="52" rx="2" fill="#5b6a86"/><text x="164" y="605" font-size="10.5" fill="#e7eef9">HDF Clinical Foundation</text><text x="312" y="633" text-anchor="end" font-size="8" font-weight="700" fill="#5b6a86" letter-spacing="0.4">LEGACY</text></a>
<a href="https://hrezaii95.github.io/dialysis-education-platform/simulator?tab=circuit" target="_blank" rel="noopener noreferrer"><title>Open live demo: Pump the Circuit (legacy skill)</title><rect x="334" y="588" width="168" height="52" rx="7" fill="#16223a" stroke="#5b6a86" stroke-width="1.5"/><rect x="334" y="588" width="4" height="52" rx="2" fill="#5b6a86"/><text x="346" y="605" font-size="10.5" fill="#e7eef9">Pump the Circuit</text><text x="494" y="633" text-anchor="end" font-size="8" font-weight="700" fill="#5b6a86" letter-spacing="0.4">LEGACY</text></a>
<a href="https://hrezaii95.github.io/dialysis-education-platform/simulator?tab=monitor" target="_blank" rel="noopener noreferrer"><title>Open live demo: 5008 Monitor Mastery (legacy skill)</title><rect x="516" y="588" width="168" height="52" rx="7" fill="#16223a" stroke="#5b6a86" stroke-width="1.5"/><rect x="516" y="588" width="4" height="52" rx="2" fill="#5b6a86"/><text x="528" y="605" font-size="10.5" fill="#e7eef9">5008 Monitor Mastery</text><text x="676" y="633" text-anchor="end" font-size="8" font-weight="700" fill="#5b6a86" letter-spacing="0.4">LEGACY</text></a>
<a href="https://hrezaii95.github.io/dialysis-education-platform/simulator?tab=cases" target="_blank" rel="noopener noreferrer"><title>Open live demo: Patient Case Lab (legacy skill)</title><rect x="152" y="654" width="168" height="52" rx="7" fill="#16223a" stroke="#5b6a86" stroke-width="1.5"/><rect x="152" y="654" width="4" height="52" rx="2" fill="#5b6a86"/><text x="164" y="671" font-size="10.5" fill="#e7eef9">Patient Case Lab</text><text x="312" y="699" text-anchor="end" font-size="8" font-weight="700" fill="#5b6a86" letter-spacing="0.4">LEGACY</text></a>
<a href="https://hrezaii95.github.io/dialysis-education-platform/alarms" target="_blank" rel="noopener noreferrer"><title>Open live demo: Alarm Response (legacy skill)</title><rect x="334" y="654" width="168" height="52" rx="7" fill="#16223a" stroke="#5b6a86" stroke-width="1.5"/><rect x="334" y="654" width="4" height="52" rx="2" fill="#5b6a86"/><text x="346" y="671" font-size="10.5" fill="#e7eef9">Alarm Response</text><text x="494" y="699" text-anchor="end" font-size="8" font-weight="700" fill="#5b6a86" letter-spacing="0.4">LEGACY</text></a>
<a href="https://hrezaii95.github.io/dialysis-education-platform/devices" target="_blank" rel="noopener noreferrer"><title>Open live demo: 3D Device Configurator (legacy skill)</title><rect x="516" y="654" width="168" height="52" rx="7" fill="#16223a" stroke="#5b6a86" stroke-width="1.5"/><rect x="516" y="654" width="4" height="52" rx="2" fill="#5b6a86"/><text x="528" y="671" font-size="10.5" fill="#e7eef9">3D Device Configurator</text><text x="676" y="699" text-anchor="end" font-size="8" font-weight="700" fill="#5b6a86" letter-spacing="0.4">LEGACY</text></a>
<a href="https://hrezaii95.github.io/dialysis-education-platform/convince" target="_blank" rel="noopener noreferrer"><title>Open live demo: CONVINCE Explorer (legacy skill)</title><rect x="152" y="720" width="168" height="52" rx="7" fill="#16223a" stroke="#5b6a86" stroke-width="1.5"/><rect x="152" y="720" width="4" height="52" rx="2" fill="#5b6a86"/><text x="164" y="737" font-size="10.5" fill="#e7eef9">CONVINCE Explorer</text><text x="312" y="765" text-anchor="end" font-size="8" font-weight="700" fill="#5b6a86" letter-spacing="0.4">LEGACY</text></a>
<a href="https://hrezaii95.github.io/dialysis-education-platform/assessment" target="_blank" rel="noopener noreferrer"><title>Open live demo: Clinical Credential (legacy skill node)</title><rect x="334" y="720" width="168" height="52" rx="7" fill="#16223a" stroke="#5b6a86" stroke-width="1.5"/><rect x="334" y="720" width="4" height="52" rx="2" fill="#5b6a86"/><text x="346" y="737" font-size="10.5" fill="#e7eef9">Clinical Credential</text><text x="494" y="765" text-anchor="end" font-size="8" font-weight="700" fill="#5b6a86" letter-spacing="0.4">LEGACY</text></a>
<circle cx="158" cy="824" r="4" fill="#f43f5e"/>
<text x="170" y="822" font-size="10.5" fill="#93a1bd">/cases (client-side redirect stub, no content of its own)</text>
<circle cx="158" cy="858" r="4" fill="#f43f5e"/>
<text x="170" y="856" font-size="10.5" fill="#93a1bd">C2 has no dedicated quiz/placement item, Daily-5 only</text>
<circle cx="158" cy="892" r="4" fill="#f43f5e"/>
<text x="170" y="890" font-size="10.5" fill="#93a1bd">legacy credential prereqs omit C1/C4 though CREDENTIAL_QUIZ tests them</text>
<circle cx="158" cy="926" r="4" fill="#f43f5e"/>
<text x="170" y="924" font-size="10.5" fill="#93a1bd">dual progress-key system (c-key vs legacy skill-key) can silently diverge</text>
<circle cx="158" cy="960" r="4" fill="#f43f5e"/>
<text x="170" y="958" font-size="10.5" fill="#93a1bd">conflicting prerequisite chains — spine C2→C3 vs legacy foundation→devices</text>
<circle cx="158" cy="994" r="4" fill="#f43f5e"/>
<text x="170" y="992" font-size="10.5" fill="#93a1bd">credential pass (≥80% quiz) ≠ true isMastered() on all 6 competencies</text>
<circle cx="158" cy="1028" r="4" fill="#f43f5e"/>
<text x="170" y="1026" font-size="10.5" fill="#93a1bd">two plausible C1 entry routes (/course/c1 vs /flipbook?page=m1-p1) + 3 competencies default</text>
<text x="170" y="1038" font-size="10.5" fill="#93a1bd">simHref to generic /simulator</text>
<rect x="20" y="1103" width="11" height="11" rx="2" fill="#22c55e"/><text x="36" y="1112" font-size="10.5" fill="#93a1bd">Live in demo</text><rect x="132.4" y="1103" width="11" height="11" rx="2" fill="#f59e0b"/><text x="148.4" y="1112" font-size="10.5" fill="#93a1bd">Preview / stub</text><rect x="257.2" y="1103" width="11" height="11" rx="2" fill="#94a3b8"/><text x="273.2" y="1112" font-size="10.5" fill="#93a1bd">Panel / planned</text><rect x="388.2" y="1103" width="11" height="11" rx="2" fill="#5b6a86"/><text x="404.2" y="1112" font-size="10.5" fill="#93a1bd">Legacy (audit-only)</text><rect x="544" y="1103" width="11" height="11" rx="2" fill="#f43f5e"/><text x="560" y="1112" font-size="10.5" fill="#93a1bd">Incoherency</text>
</svg>