<svg xmlns="http://www.w3.org/2000/svg" viewBox="0 0 340 268" width="340" height="268" role="img" font-family='system-ui, Segoe UI, Roboto, Arial, sans-serif'>
<title>Honest build status · site nodes</title>
<desc>Icon array: 15 of 35 site nodes are fully built; the rest are stub, preview, or legacy.</desc>
<defs></defs>
<rect x="0" y="0" width="340" height="268" fill="#FFFFFF"/>
<text x="170" y="24" font-family="system-ui, Segoe UI, Roboto, Arial, sans-serif" font-size="11" font-weight="600" fill="#8A95A1" text-anchor="middle" letter-spacing="0.11em" style="text-transform:uppercase">Honest build status · site nodes</text>
<circle cx="86" cy="64" r="7.840000000000001" fill="#6CCB3E" opacity="1"/>
<circle cx="114" cy="64" r="7.840000000000001" fill="#6CCB3E" opacity="1"/>
<circle cx="142" cy="64" r="7.840000000000001" fill="#6CCB3E" opacity="1"/>
<circle cx="170" cy="64" r="7.840000000000001" fill="#6CCB3E" opacity="1"/>
<circle cx="198" cy="64" r="7.840000000000001" fill="#6CCB3E" opacity="1"/>
<circle cx="226" cy="64" r="7.840000000000001" fill="#6CCB3E" opacity="1"/>
<circle cx="254" cy="64" r="7.840000000000001" fill="#6CCB3E" opacity="1"/>
<circle cx="86" cy="92" r="7.840000000000001" fill="#6CCB3E" opacity="1"/>
<circle cx="114" cy="92" r="7.840000000000001" fill="#6CCB3E" opacity="1"/>
<circle cx="142" cy="92" r="7.840000000000001" fill="#6CCB3E" opacity="1"/>
<circle cx="170" cy="92" r="7.840000000000001" fill="#6CCB3E" opacity="1"/>
<circle cx="198" cy="92" r="7.840000000000001" fill="#6CCB3E" opacity="1"/>
<circle cx="226" cy="92" r="7.840000000000001" fill="#6CCB3E" opacity="1"/>
<circle cx="254" cy="92" r="7.840000000000001" fill="#6CCB3E" opacity="1"/>
<circle cx="86" cy="120" r="7.840000000000001" fill="#6CCB3E" opacity="1"/>
<circle cx="114" cy="120" r="7.840000000000001" fill="#10306B" opacity="0.16"/>
<circle cx="142" cy="120" r="7.840000000000001" fill="#10306B" opacity="0.16"/>
<circle cx="170" cy="120" r="7.840000000000001" fill="#10306B" opacity="0.16"/>
<circle cx="198" cy="120" r="7.840000000000001" fill="#10306B" opacity="0.16"/>
<circle cx="226" cy="120" r="7.840000000000001" fill="#10306B" opacity="0.16"/>
<circle cx="254" cy="120" r="7.840000000000001" fill="#10306B" opacity="0.16"/>
<circle cx="86" cy="148" r="7.840000000000001" fill="#10306B" opacity="0.16"/>
<circle cx="114" cy="148" r="7.840000000000001" fill="#10306B" opacity="0.16"/>
<circle cx="142" cy="148" r="7.840000000000001" fill="#10306B" opacity="0.16"/>
<circle cx="170" cy="148" r="7.840000000000001" fill="#10306B" opacity="0.16"/>
<circle cx="198" cy="148" r="7.840000000000001" fill="#10306B" opacity="0.16"/>
<circle cx="226" cy="148" r="7.840000000000001" fill="#10306B" opacity="0.16"/>
<circle cx="254" cy="148" r="7.840000000000001" fill="#10306B" opacity="0.16"/>
<circle cx="86" cy="176" r="7.840000000000001" fill="#10306B" opacity="0.16"/>
<circle cx="114" cy="176" r="7.840000000000001" fill="#10306B" opacity="0.16"/>
<circle cx="142" cy="176" r="7.840000000000001" fill="#10306B" opacity="0.16"/>
<circle cx="170" cy="176" r="7.840000000000001" fill="#10306B" opacity="0.16"/>
<circle cx="198" cy="176" r="7.840000000000001" fill="#10306B" opacity="0.16"/>
<circle cx="226" cy="176" r="7.840000000000001" fill="#10306B" opacity="0.16"/>
<circle cx="254" cy="176" r="7.840000000000001" fill="#10306B" opacity="0.16"/>
<text x="170" y="216" font-family="system-ui, Segoe UI, Roboto, Arial, sans-serif" font-size="11.5" font-weight="600" fill="#0F141A" text-anchor="middle">15 of 35 site nodes are fully built — rest are stub / preview / legacy</text>
<g>
<rect x="100" y="230" width="212" height="20" rx="10" fill="rgba(16,48,107,0.07)" stroke="rgba(16, 48, 107, 0.10)" stroke-width="1"/>
<text x="206" y="243.5" font-family="system-ui, Segoe UI, Roboto, Arial, sans-serif" font-size="9.5" font-weight="600" fill="#55616E" text-anchor="middle" letter-spacing="0.02em">connection-map.json · S0 audit</text>
</g>
</svg>