<svg xmlns="http://www.w3.org/2000/svg" viewBox="0 0 1120 600" width="1120" height="600" role="img" font-family='Vazirmatn, Segoe UI, Tahoma, system-ui, sans-serif'>
<title>نقشه اتصال پلتفرم — لایه‌های A · B · C</title>
<desc>نقشهٔ اتصال پلتفرم — گراف توپولوژیک واقعی گره-یال. لایهٔ A (شش شایستگی C1 تا C6)، لایهٔ B (شش مسیر ناوبری)، لایهٔ C (هشت گرهٔ ارزیابی)، با یال‌های پیش‌نیاز، تمرین و ارزیابی. رنگ‌های وضعیت: واقعی، پیش‌نمایش، برنامه‌ریزی‌شده، میراث، تغییرمسیر.</desc>
<defs></defs>
<rect x="0" y="0" width="1120" height="600" fill="#FFFFFF"/>
<text x="560" y="30" font-family="system-ui, Segoe UI, Roboto, Arial, sans-serif" font-size="13" font-weight="600" fill="#10306B" text-anchor="middle">نقشه اتصال پلتفرم — لایه‌های A · B · C</text>
<text x="80" y="46" font-family="system-ui, Segoe UI, Roboto, Arial, sans-serif" font-size="10.5" font-weight="600" fill="#8A95A1" text-anchor="middle" letter-spacing="0.11em" style="text-transform:uppercase">لایه A</text>
<text x="560" y="46" font-family="system-ui, Segoe UI, Roboto, Arial, sans-serif" font-size="10.5" font-weight="600" fill="#8A95A1" text-anchor="middle" letter-spacing="0.11em" style="text-transform:uppercase">لایه B</text>
<text x="1040" y="46" font-family="system-ui, Segoe UI, Roboto, Arial, sans-serif" font-size="10.5" font-weight="600" fill="#8A95A1" text-anchor="middle" letter-spacing="0.11em" style="text-transform:uppercase">لایه C</text>
<g data-mirror="flow" transform="translate(1120,0) scale(-1,1)">
<path d="M80 90 V170" stroke="#10306B" stroke-width="2" fill="none" opacity="0.75"/>
<path d="M80 90 V490" stroke="#10306B" stroke-width="2" fill="none" opacity="0.75"/>
<path d="M80 170 V250" stroke="#10306B" stroke-width="2" fill="none" opacity="0.75"/>
<path d="M80 90 V330" stroke="#10306B" stroke-width="2" fill="none" opacity="0.75"/>
<path d="M80 250 V330" stroke="#10306B" stroke-width="2" fill="none" opacity="0.75"/>
<path d="M80 250 V410" stroke="#10306B" stroke-width="2" fill="none" opacity="0.75"/>
<path d="M80 90 H320 V330 H560" stroke="#5D8AD4" stroke-width="1.5" fill="none" opacity="0.75"/>
<path d="M80 170 H320 V330 H560" stroke="#5D8AD4" stroke-width="1.5" fill="none" opacity="0.75"/>
<path d="M560 170 H320 V90 H80" stroke="#10306B" stroke-width="2" fill="none" opacity="0.75"/>
<path d="M560 170 H80" stroke="#10306B" stroke-width="2" fill="none" opacity="0.75"/>
<path d="M560 170 H320 V250 H80" stroke="#10306B" stroke-width="2" fill="none" opacity="0.75"/>
<path d="M560 170 H320 V330 H80" stroke="#10306B" stroke-width="2" fill="none" opacity="0.75"/>
<path d="M560 170 H320 V410 H80" stroke="#10306B" stroke-width="2" fill="none" opacity="0.75"/>
<path d="M560 170 H320 V490 H80" stroke="#10306B" stroke-width="2" fill="none" opacity="0.75"/>
<path d="M560 90 V170" stroke="#10306B" stroke-width="2" fill="none" opacity="0.75"/>
<path d="M560 250 H320 V90 H80" stroke="#10306B" stroke-width="2" fill="none" opacity="0.75"/>
<path d="M560 250 H320 V170 H80" stroke="#10306B" stroke-width="2" fill="none" opacity="0.75"/>
<path d="M560 250 H80" stroke="#10306B" stroke-width="2" fill="none" opacity="0.75"/>
<path d="M560 250 H320 V330 H80" stroke="#10306B" stroke-width="2" fill="none" opacity="0.75"/>
<path d="M560 250 H320 V410 H80" stroke="#10306B" stroke-width="2" fill="none" opacity="0.75"/>
<path d="M560 250 H320 V490 H80" stroke="#10306B" stroke-width="2" fill="none" opacity="0.75"/>
<path d="M80 90 H1040" stroke="#9BC0F2" stroke-width="1.25" stroke-dasharray="3 3" fill="none" opacity="0.75"/>
<path d="M80 170 H560 V90 H1040" stroke="#9BC0F2" stroke-width="1.25" stroke-dasharray="3 3" fill="none" opacity="0.75"/>
<path d="M80 250 H560 V90 H1040" stroke="#9BC0F2" stroke-width="1.25" stroke-dasharray="3 3" fill="none" opacity="0.75"/>
<path d="M80 330 H560 V90 H1040" stroke="#9BC0F2" stroke-width="1.25" stroke-dasharray="3 3" fill="none" opacity="0.75"/>
<path d="M80 410 H560 V90 H1040" stroke="#9BC0F2" stroke-width="1.25" stroke-dasharray="3 3" fill="none" opacity="0.75"/>
<path d="M80 490 H560 V90 H1040" stroke="#9BC0F2" stroke-width="1.25" stroke-dasharray="3 3" fill="none" opacity="0.75"/>
<path d="M80 90 H560 V147.14285714285714 H1040" stroke="#9BC0F2" stroke-width="1.25" stroke-dasharray="3 3" fill="none" opacity="0.75"/>
<path d="M80 170 H560 V147.14285714285714 H1040" stroke="#9BC0F2" stroke-width="1.25" stroke-dasharray="3 3" fill="none" opacity="0.75"/>
<path d="M80 250 H560 V147.14285714285714 H1040" stroke="#9BC0F2" stroke-width="1.25" stroke-dasharray="3 3" fill="none" opacity="0.75"/>
<path d="M80 330 H560 V147.14285714285714 H1040" stroke="#9BC0F2" stroke-width="1.25" stroke-dasharray="3 3" fill="none" opacity="0.75"/>
<path d="M80 410 H560 V147.14285714285714 H1040" stroke="#9BC0F2" stroke-width="1.25" stroke-dasharray="3 3" fill="none" opacity="0.75"/>
<path d="M80 490 H560 V147.14285714285714 H1040" stroke="#9BC0F2" stroke-width="1.25" stroke-dasharray="3 3" fill="none" opacity="0.75"/>
<path d="M80 90 H560 V204.28571428571428 H1040" stroke="#9BC0F2" stroke-width="1.25" stroke-dasharray="3 3" fill="none" opacity="0.75"/>
<path d="M80 170 H560 V204.28571428571428 H1040" stroke="#9BC0F2" stroke-width="1.25" stroke-dasharray="3 3" fill="none" opacity="0.75"/>
<path d="M80 250 H560 V204.28571428571428 H1040" stroke="#9BC0F2" stroke-width="1.25" stroke-dasharray="3 3" fill="none" opacity="0.75"/>
<path d="M80 330 H560 V204.28571428571428 H1040" stroke="#9BC0F2" stroke-width="1.25" stroke-dasharray="3 3" fill="none" opacity="0.75"/>
<path d="M80 410 H560 V204.28571428571428 H1040" stroke="#9BC0F2" stroke-width="1.25" stroke-dasharray="3 3" fill="none" opacity="0.75"/>
<path d="M80 490 H560 V204.28571428571428 H1040" stroke="#9BC0F2" stroke-width="1.25" stroke-dasharray="3 3" fill="none" opacity="0.75"/>
<path d="M80 410 H560 V261.42857142857144 H1040" stroke="#9BC0F2" stroke-width="1.25" stroke-dasharray="3 3" fill="none" opacity="0.75"/>
<path d="M80 410 H560 V318.57142857142856 H1040" stroke="#9BC0F2" stroke-width="1.25" stroke-dasharray="3 3" fill="none" opacity="0.75"/>
<path d="M80 410 H560 V375.7142857142857 H1040" stroke="#9BC0F2" stroke-width="1.25" stroke-dasharray="3 3" fill="none" opacity="0.75"/>
<path d="M80 410 H560 V432.8571428571429 H1040" stroke="#9BC0F2" stroke-width="1.25" stroke-dasharray="3 3" fill="none" opacity="0.75"/>
<path d="M80 250 H560 V490 H1040" stroke="#9BC0F2" stroke-width="1.25" stroke-dasharray="3 3" fill="none" opacity="0.75"/>
</g>
<g>
<circle cx="80" cy="90" r="15" fill="rgba(108,203,62,0.14)" stroke="#6CCB3E" stroke-width="1.75"/>
<circle cx="80" cy="90" r="3.5" fill="#6CCB3E"/>
<text x="80" y="118" font-family="system-ui, Segoe UI, Roboto, Arial, sans-serif" font-size="9" font-weight="700" fill="#55616E" text-anchor="middle">C1</text>
</g>
<g>
<circle cx="80" cy="170" r="15" fill="rgba(227,154,59,0.14)" stroke="#E39A3B" stroke-width="1.75"/>
<circle cx="80" cy="170" r="3.5" fill="#E39A3B"/>
<text x="80" y="198" font-family="system-ui, Segoe UI, Roboto, Arial, sans-serif" font-size="9" font-weight="700" fill="#55616E" text-anchor="middle">C2</text>
</g>
<g>
<circle cx="80" cy="250" r="15" fill="rgba(108,203,62,0.14)" stroke="#6CCB3E" stroke-width="1.75"/>
<circle cx="80" cy="250" r="3.5" fill="#6CCB3E"/>
<text x="80" y="278" font-family="system-ui, Segoe UI, Roboto, Arial, sans-serif" font-size="9" font-weight="700" fill="#55616E" text-anchor="middle">C3</text>
</g>
<g>
<circle cx="80" cy="330" r="15" fill="rgba(93,138,212,0.14)" stroke="#5D8AD4" stroke-width="1.75"/>
<circle cx="80" cy="330" r="3.5" fill="#5D8AD4"/>
<text x="80" y="358" font-family="system-ui, Segoe UI, Roboto, Arial, sans-serif" font-size="9" font-weight="700" fill="#55616E" text-anchor="middle">C4</text>
</g>
<g>
<circle cx="80" cy="410" r="15" fill="rgba(108,203,62,0.14)" stroke="#6CCB3E" stroke-width="1.75"/>
<circle cx="80" cy="410" r="3.5" fill="#6CCB3E"/>
<text x="80" y="438" font-family="system-ui, Segoe UI, Roboto, Arial, sans-serif" font-size="9" font-weight="700" fill="#55616E" text-anchor="middle">C5</text>
</g>
<g>
<circle cx="80" cy="490" r="15" fill="rgba(108,203,62,0.14)" stroke="#6CCB3E" stroke-width="1.75"/>
<circle cx="80" cy="490" r="3.5" fill="#6CCB3E"/>
<text x="80" y="518" font-family="system-ui, Segoe UI, Roboto, Arial, sans-serif" font-size="9" font-weight="700" fill="#55616E" text-anchor="middle">C6</text>
</g>
<g>
<circle cx="560" cy="90" r="15" fill="rgba(108,203,62,0.14)" stroke="#6CCB3E" stroke-width="1.75"/>
<circle cx="560" cy="90" r="3.5" fill="#6CCB3E"/>
<text x="560" y="118" font-family="system-ui, Segoe UI, Roboto, Arial, sans-serif" font-size="9" font-weight="700" fill="#55616E" text-anchor="middle">خانه</text>
</g>
<g>
<circle cx="560" cy="170" r="15" fill="rgba(108,203,62,0.14)" stroke="#6CCB3E" stroke-width="1.75"/>
<circle cx="560" cy="170" r="3.5" fill="#6CCB3E"/>
<text x="560" y="198" font-family="system-ui, Segoe UI, Roboto, Arial, sans-serif" font-size="9" font-weight="700" fill="#55616E" text-anchor="middle">مسیر من</text>
</g>
<g>
<circle cx="560" cy="250" r="15" fill="rgba(108,203,62,0.14)" stroke="#6CCB3E" stroke-width="1.75"/>
<circle cx="560" cy="250" r="3.5" fill="#6CCB3E"/>
<text x="560" y="278" font-family="system-ui, Segoe UI, Roboto, Arial, sans-serif" font-size="9" font-weight="700" fill="#55616E" text-anchor="middle">مرکز آموزش</text>
</g>
<g>
<circle cx="560" cy="330" r="15" fill="rgba(108,203,62,0.14)" stroke="#6CCB3E" stroke-width="1.75"/>
<circle cx="560" cy="330" r="3.5" fill="#6CCB3E"/>
<text x="560" y="358" font-family="system-ui, Segoe UI, Roboto, Arial, sans-serif" font-size="9" font-weight="700" fill="#55616E" text-anchor="middle">شبیه‌ساز</text>
</g>
<g>
<circle cx="560" cy="410" r="15" fill="rgba(108,203,62,0.14)" stroke="#6CCB3E" stroke-width="1.75"/>
<circle cx="560" cy="410" r="3.5" fill="#6CCB3E"/>
<text x="560" y="438" font-family="system-ui, Segoe UI, Roboto, Arial, sans-serif" font-size="9" font-weight="700" fill="#55616E" text-anchor="middle">پایش</text>
</g>
<g>
<circle cx="560" cy="490" r="15" fill="rgba(108,203,62,0.14)" stroke="#6CCB3E" stroke-width="1.75"/>
<circle cx="560" cy="490" r="3.5" fill="#6CCB3E"/>
<text x="560" y="518" font-family="system-ui, Segoe UI, Roboto, Arial, sans-serif" font-size="9" font-weight="700" fill="#55616E" text-anchor="middle">ناظر</text>
</g>
<g>
<circle cx="1040" cy="90" r="15" fill="rgba(108,203,62,0.14)" stroke="#6CCB3E" stroke-width="1.75"/>
<circle cx="1040" cy="90" r="3.5" fill="#6CCB3E"/>
<text x="1040" y="118" font-family="system-ui, Segoe UI, Roboto, Arial, sans-serif" font-size="9" font-weight="700" fill="#55616E" text-anchor="middle">ارزیابی ورودی</text>
</g>
<g>
<circle cx="1040" cy="147.14285714285714" r="15" fill="rgba(108,203,62,0.14)" stroke="#6CCB3E" stroke-width="1.75"/>
<circle cx="1040" cy="147.14285714285714" r="3.5" fill="#6CCB3E"/>
<text x="1040" y="175.14285714285714" font-family="system-ui, Segoe UI, Roboto, Arial, sans-serif" font-size="9" font-weight="700" fill="#55616E" text-anchor="middle">گواهی‌نامه</text>
</g>
<g>
<circle cx="1040" cy="204.28571428571428" r="15" fill="rgba(108,203,62,0.14)" stroke="#6CCB3E" stroke-width="1.75"/>
<circle cx="1040" cy="204.28571428571428" r="3.5" fill="#6CCB3E"/>
<text x="1040" y="232.28571428571428" font-family="system-ui, Segoe UI, Roboto, Arial, sans-serif" font-size="9" font-weight="700" fill="#55616E" text-anchor="middle">روزانه-۵</text>
</g>
<g>
<circle cx="1040" cy="261.42857142857144" r="15" fill="rgba(108,203,62,0.14)" stroke="#6CCB3E" stroke-width="1.75"/>
<circle cx="1040" cy="261.42857142857144" r="3.5" fill="#6CCB3E"/>
<text x="1040" y="289.42857142857144" font-family="system-ui, Segoe UI, Roboto, Arial, sans-serif" font-size="9" font-weight="700" fill="#55616E" text-anchor="middle">مورد ۱</text>
</g>
<g>
<circle cx="1040" cy="318.57142857142856" r="15" fill="rgba(227,154,59,0.14)" stroke="#E39A3B" stroke-width="1.75"/>
<circle cx="1040" cy="318.57142857142856" r="3.5" fill="#E39A3B"/>
<text x="1040" y="346.57142857142856" font-family="system-ui, Segoe UI, Roboto, Arial, sans-serif" font-size="9" font-weight="700" fill="#55616E" text-anchor="middle">مورد ۲</text>
</g>
<g>
<circle cx="1040" cy="375.7142857142857" r="15" fill="rgba(227,154,59,0.14)" stroke="#E39A3B" stroke-width="1.75"/>
<circle cx="1040" cy="375.7142857142857" r="3.5" fill="#E39A3B"/>
<text x="1040" y="403.7142857142857" font-family="system-ui, Segoe UI, Roboto, Arial, sans-serif" font-size="9" font-weight="700" fill="#55616E" text-anchor="middle">مورد ۳</text>
</g>
<g>
<circle cx="1040" cy="432.8571428571429" r="15" fill="rgba(227,154,59,0.14)" stroke="#E39A3B" stroke-width="1.75"/>
<circle cx="1040" cy="432.8571428571429" r="3.5" fill="#E39A3B"/>
<text x="1040" y="460.8571428571429" font-family="system-ui, Segoe UI, Roboto, Arial, sans-serif" font-size="9" font-weight="700" fill="#55616E" text-anchor="middle">مورد ۴</text>
</g>
<g>
<circle cx="1040" cy="490" r="15" fill="rgba(108,203,62,0.14)" stroke="#6CCB3E" stroke-width="1.75"/>
<circle cx="1040" cy="490" r="3.5" fill="#6CCB3E"/>
<text x="1040" y="518" font-family="system-ui, Segoe UI, Roboto, Arial, sans-serif" font-size="9" font-weight="700" fill="#55616E" text-anchor="middle">آلارم‌ها</text>
</g>
<g><circle cx="80" cy="574" r="5" fill="#6CCB3E"/><text x="92" y="578" font-family="system-ui, Segoe UI, Roboto, Arial, sans-serif" font-size="9.5" font-weight="600" fill="#55616E" text-anchor="start">واقعی</text>
<circle cx="210" cy="574" r="5" fill="#E39A3B"/><text x="222" y="578" font-family="system-ui, Segoe UI, Roboto, Arial, sans-serif" font-size="9.5" font-weight="600" fill="#55616E" text-anchor="start">پیش‌نمایش</text>
<circle cx="340" cy="574" r="5" fill="#5D8AD4"/><text x="352" y="578" font-family="system-ui, Segoe UI, Roboto, Arial, sans-serif" font-size="9.5" font-weight="600" fill="#55616E" text-anchor="start">برنامه‌ریزی‌شده</text>
<circle cx="470" cy="574" r="5" fill="#8A95A1"/><text x="482" y="578" font-family="system-ui, Segoe UI, Roboto, Arial, sans-serif" font-size="9.5" font-weight="600" fill="#55616E" text-anchor="start">میراث</text>
<circle cx="600" cy="574" r="5" fill="#DA4A54"/><text x="612" y="578" font-family="system-ui, Segoe UI, Roboto, Arial, sans-serif" font-size="9.5" font-weight="600" fill="#55616E" text-anchor="start">تغییرمسیر</text></g>
</svg>